<svg xmlns="http://www.w3.org/2000/svg" width="24" height="24" fill="none"><path fill="#E2761B" stroke="#E2761B" stroke-linecap="round" stroke-linejoin="round" d="m20.648 2.674-7.495 5.567 1.386-3.284 6.109-2.283Z"/><path fill="#E4761B" stroke="#E4761B" stroke-linecap="round" stroke-linejoin="round" d="m3.345 2.674 7.435 5.62L9.46 4.957 3.345 2.674ZM17.951 15.578l-1.996 3.059 4.271 1.175 1.228-4.166-3.503-.068ZM2.554 15.646l1.22 4.166 4.271-1.175-1.996-3.059-3.495.068Z"/><path fill="#E4761B" stroke="#E4761B" stroke-linecap="round" stroke-linejoin="round" d="m7.804 10.41-1.19 1.801 4.241.188-.15-4.557-2.9 2.569ZM16.188 10.41l-2.937-2.62-.098 4.61 4.233-.189-1.198-1.8ZM8.045 18.637l2.546-1.243-2.2-1.718-.346 2.96ZM13.401 17.394l2.554 1.243-.354-2.96-2.2 1.717Z"/><path fill="#D7C1B3" stroke="#D7C1B3" stroke-linecap="round" stroke-linejoin="round" d="M15.955 18.637 13.4 17.394l.204 1.665-.023.7 2.373-1.122ZM8.045 18.637l2.373 1.122-.015-.7.188-1.665-2.546 1.243Z"/><path fill="#233447" stroke="#233447" stroke-linecap="round" stroke-linejoin="round" d="m10.456 14.576-2.124-.625 1.499-.685.625 1.31ZM13.537 14.576l.625-1.31 1.507.685-2.132.625Z"/><path fill="#CD6116" stroke="#CD6116" stroke-linecap="round" stroke-linejoin="round" d="m8.045 18.637.362-3.059-2.358.068 1.996 2.99ZM15.593 15.578l.362 3.059 1.996-2.991-2.358-.068ZM17.386 12.21l-4.233.19.391 2.176.625-1.31 1.507.685 1.71-1.74ZM8.332 13.951l1.506-.685.618 1.31.4-2.177-4.242-.188 1.718 1.74Z"/><path fill="#E4751F" stroke="#E4751F" stroke-linecap="round" stroke-linejoin="round" d="m6.614 12.21 1.778 3.466-.06-1.725-1.718-1.74ZM15.676 13.951l-.075 1.725 1.785-3.465-1.71 1.74ZM10.855 12.4l-.4 2.176.498 2.569.113-3.382-.21-1.364ZM13.153 12.4l-.204 1.355.09 3.39.505-2.569-.391-2.177Z"/><path fill="#F6851B" stroke="#F6851B" stroke-linecap="round" stroke-linejoin="round" d="m13.544 14.576-.504 2.57.361.248 2.2-1.718.075-1.725-2.132.625ZM8.332 13.951l.06 1.725 2.2 1.718.361-.249-.497-2.569-2.124-.625Z"/><path fill="#C0AD9E" stroke="#C0AD9E" stroke-linecap="round" stroke-linejoin="round" d="m13.582 19.76.022-.701-.188-.166h-2.84l-.173.166.015.7-2.373-1.122.829.678 1.68 1.167h2.885l1.687-1.167.829-.678-2.373 1.122Z"/><path fill="#161616" stroke="#161616" stroke-linecap="round" stroke-linejoin="round" d="m13.401 17.394-.361-.249h-2.087l-.362.249-.188 1.664.173-.165h2.84l.189.165-.204-1.664Z"/><path fill="#763D16" stroke="#763D16" stroke-linecap="round" stroke-linejoin="round" d="m20.964 8.603.64-3.074-.956-2.855L13.4 8.053l2.787 2.358 3.94 1.152.874-1.017-.377-.27.603-.55-.467-.362.602-.46-.399-.301ZM2.396 5.53l.64 3.073-.407.301.603.46-.46.361.603.55-.377.271.866 1.017 3.94-1.152 2.787-2.358-7.246-5.379-.95 2.855Z"/><path fill="#F6851B" stroke="#F6851B" stroke-linecap="round" stroke-linejoin="round" d="m20.128 11.563-3.94-1.152 1.198 1.8-1.785 3.465 2.35-.03h3.503l-1.326-4.083ZM7.804 10.41l-3.94 1.153-1.31 4.083h3.495l2.343.03-1.778-3.465 1.19-1.8ZM13.153 12.4l.248-4.347 1.145-3.096H9.461l1.13 3.096.264 4.346.09 1.371.008 3.375h2.087l.015-3.375.098-1.37Z"/></svg>