<svg xmlns="http://www.w3.org/2000/svg" width="24" height="24" fill="none"><path fill="#133444" d="m6.18 13.44.433-.19 5.39-2.343 5.824 2.534-2.187 4.517-5.35.757-4.023-4.342-.088-.932Z"/><path fill="#C42370" d="M16.616 10.652a5.988 5.988 0 0 0-3.816-2.11l-.096-.013a5.896 5.896 0 0 0-1.402 0l-.096.012a5.978 5.978 0 0 0-3.816 2.111l-.243.403-.402.669-.295.49-.016.04-.004.008.653.386 4.123 2.442.797.47V9.724l-.797.363v-.873l.797-.362.797.362 4.059 1.845-.243-.407Z"/><path fill="#1C4D6B" d="M18.006 14.89c0 1.944-.924 3.76-2.354 4.932a5.99 5.99 0 0 1-1.896 1.052 5.562 5.562 0 0 1-1.749.282C8.689 21.156 6 18.21 6 14.891c0-.49.06-.976.175-1.454l5.828 3.45 5.824-3.447c.12.475.179.965.179 1.45Z"/><path fill="#000" d="m11.302 8.533.701.319-.797.362V8.49l.096.044ZM11.206 10.087l.797-.363v5.84l-.797-.474v-5.003Z"/><path fill="#1D4259" d="M12.003 9.724v5.84l5.58-3.303-5.58-2.537Z"/><path fill="#4B6B9A" d="M12.003 3v6.724l5.58 2.537L12.004 3Z"/><path fill="#343535" d="M12.003 9.724v5.835l-.796-.47-4.78-2.828-.009-.004.012-.004.016-.04.697-1.159 4.064-1.84v.876l.796-.366Z"/><path fill="#3E5578" d="M12.003 9.724v5.84l-.797-.474-4.78-2.825-.004-.004.008-.003 4.776-2.171.797-.363Z"/><path fill="#6DB2D8" d="M12.003 3v6.724l-5.58 2.537L12.002 3Z"/><path fill="#335F8A" d="M9.744 20.679a3.324 3.324 0 0 1 0 0ZM9.995 20.782ZM10.473 20.945c.068.02.132.036.2.052-.064-.016-.132-.036-.2-.052Z"/><path fill="#6DB2D8" d="m6.18 13.44 5.823 3.446a6.8 6.8 0 0 1-.418 1.53c-.466 1.127-1.406 2.318-3.23 1.41C6.92 18.655 6 16.834 6 14.89c0-.486.06-.976.18-1.45Z"/><path fill="#529BBA" d="m15.648 19.826-.016.012-.092.072-.008.008c-.032.027-.068.051-.1.075-.035.028-.071.056-.111.08-.04.024-.076.052-.111.08-.036.027-.068.043-.1.067l-.02.012c-.036.024-.072.044-.104.068-.004.004-.008.004-.011.008a1.516 1.516 0 0 1-.108.064c-.036.02-.08.047-.12.067a1.71 1.71 0 0 1-.12.064l-.003.004-.12.06-.123.06c-.044.02-.084.04-.123.055-.084.036-.168.072-.251.104a4.926 4.926 0 0 1-.26.092c-.035.012-.067.023-.103.031l-.116.036c-.067.02-.13.036-.199.052-.024.008-.051.012-.075.02l-.044.008-.108.024-.1.02a.907.907 0 0 1-.09.016c-.033.004-.069.012-.1.016-.016.004-.032.004-.048.008l-.076.008-.044.004c-.028.004-.056.008-.084.008-.035.003-.067.008-.103.008-.028 0-.052.003-.08.008-.028 0-.048.003-.071.003h-.004c-.028 0-.056.004-.08.004-.036 0-.076.004-.112.004h-.231c-.04 0-.075 0-.111-.004-.028 0-.056-.004-.084-.004h-.004l-.072-.003c-.023 0-.051-.005-.08-.008-.035-.005-.067-.005-.103-.009-.028-.003-.056-.003-.083-.007l-.04-.004a.486.486 0 0 0-.076-.008.2.2 0 0 1-.048-.008c-.032-.004-.067-.008-.1-.016-.031-.004-.059-.012-.09-.016-.033-.004-.065-.012-.1-.02l-.108-.024-.044-.008a.54.54 0 0 1-.075-.02c-.068-.016-.132-.036-.2-.052l-.12-.036-.103-.031c-.087-.028-.171-.06-.259-.092a3.647 3.647 0 0 1-.25-.104c-.04-.02-.084-.035-.124-.055l-.124-.06-.12-.06-.003-.004c-.04-.02-.08-.044-.12-.064-.04-.02-.08-.043-.12-.067-.039-.024-.07-.044-.107-.064L9 20.3a.925.925 0 0 1-.103-.068l-.02-.012a1.464 1.464 0 0 1-.1-.067c-.032-.024-.075-.052-.111-.08-.036-.028-.072-.052-.112-.08a7.44 7.44 0 0 0-.1-.075l-.007-.008-.092-.072-.016-.012c1.82.908 2.765-.287 3.23-1.41.2-.49.34-1.004.419-1.53a6.8 6.8 0 0 0 .418 1.53c.482 1.123 1.422 2.314 3.243 1.41Z"/><path fill="#335F8A" d="M13.33 20.997c.067-.016.135-.036.198-.052a2.88 2.88 0 0 1-.199.052ZM13.752 20.878c.087-.028.171-.06.259-.092-.084.032-.172.06-.26.092ZM14.01 20.782c.084-.032.168-.067.252-.103-.08.04-.168.071-.251.103Z"/><path fill="#4B6B9A" d="M18.006 14.89c0 1.944-.924 3.76-2.354 4.936-1.82.908-2.765-.287-3.23-1.41a6.743 6.743 0 0 1-.42-1.53l5.825-3.446c.12.475.179.964.179 1.45Z"/></svg>