<svg width="36" height="36" viewBox="0 0 36 36" fill="none" xmlns="http://www.w3.org/2000/svg">
<g clip-path="url(#clip0_1204_55685)">
<path d="M11.5388 18C11.5388 9.83031 16.9849 2.93571 24.442 0.736892C22.826 0.260436 21.116 0 19.3452 0C9.40414 0 1.34525 8.05896 1.34525 18C1.34525 27.9417 9.40421 36.0001 19.3453 36.0001C21.1155 36.0001 22.826 35.7402 24.4421 35.2637C16.9844 33.0654 11.5388 26.1703 11.5388 18Z" fill="black"/>
<path d="M24.9731 10.9992C29.3673 10.9992 33.0764 13.9287 34.2588 17.9404C34.5147 17.0713 34.6548 16.1511 34.6548 15.1988C34.6548 9.85223 30.3201 5.51815 24.973 5.51758C19.6259 5.51758 15.2907 9.85166 15.2907 15.1982C15.2907 16.1506 15.4313 17.0708 15.6878 17.9398C16.8708 13.9287 20.5793 10.9997 24.9731 10.9992Z" fill="#444444"/>
<path d="M28.3627 21.1224C28.3627 24.3905 26.183 27.149 23.1995 28.0282C23.8458 28.2189 24.5298 28.3229 25.2391 28.3229C29.2149 28.3229 32.4397 25.0992 32.4397 21.1218C32.4397 17.1445 29.2165 13.9202 25.2391 13.9202C24.5315 13.9202 23.8458 14.0236 23.1995 14.215C26.183 15.0947 28.3627 17.8532 28.3627 21.1224Z" fill="#9D9D9D"/>
</g>
<defs>
<clipPath id="clip0_1204_55685">
<rect width="36" height="36" fill="white"/>
</clipPath>
</defs>
</svg>
