<svg width="128" height="36" viewBox="0 0 128 36" fill="none" xmlns="http://www.w3.org/2000/svg">
<g clip-path="url(#clip0_724_23926)">
<path d="M11.5388 18C11.5388 9.83031 16.9849 2.93571 24.442 0.736892C22.826 0.260436 21.116 0 19.3452 0C9.40413 0 1.34525 8.05896 1.34525 18C1.34525 27.9417 9.40421 36.0001 19.3453 36.0001C21.1155 36.0001 22.826 35.7402 24.4421 35.2637C16.9844 33.0654 11.5388 26.1703 11.5388 18Z" fill="black"/>
<path d="M24.9731 10.9992C29.3673 10.9992 33.0764 13.9287 34.2588 17.9404C34.5147 17.0713 34.6548 16.1511 34.6548 15.1988C34.6548 9.85223 30.3201 5.51815 24.973 5.51758C19.6259 5.51758 15.2907 9.85166 15.2907 15.1982C15.2907 16.1506 15.4313 17.0708 15.6878 17.9398C16.8708 13.9287 20.5793 10.9997 24.9731 10.9992Z" fill="#444444"/>
<path d="M28.3627 21.1224C28.3627 24.3905 26.183 27.149 23.1995 28.0282C23.8458 28.2189 24.5298 28.3229 25.2391 28.3229C29.2149 28.3229 32.4397 25.0992 32.4397 21.1218C32.4397 17.1445 29.2165 13.9202 25.2391 13.9202C24.5315 13.9202 23.8458 14.0236 23.1995 14.215C26.183 15.0947 28.3627 17.8532 28.3627 21.1224Z" fill="#9D9D9D"/>
</g>
<path d="M55.938 7.736V1.4H59.142V14H56.658L52.212 7.664V14H48.99V1.4H51.492L55.938 7.736ZM68.8765 1.4V4.514H64.3585V6.566H68.7865V9.68H64.3585V14H61.1365V1.4H68.8765ZM69.6429 1.4H79.0929V4.514H75.9789V14H72.7569V4.514H69.6429V1.4ZM88.8216 14.27C87.5136 14.27 86.4156 13.994 85.5276 13.442C84.6516 12.89 84.0336 12.122 83.6736 11.138L86.4276 9.536C86.8956 10.652 87.7236 11.21 88.9116 11.21C89.8956 11.21 90.3876 10.928 90.3876 10.364C90.3876 10.004 90.1056 9.704 89.5416 9.464C89.3496 9.392 88.8216 9.23 87.9576 8.978C86.7336 8.63 85.8036 8.144 85.1676 7.52C84.5316 6.896 84.2136 6.068 84.2136 5.036C84.2136 3.872 84.6276 2.93 85.4556 2.21C86.3076 1.49 87.3516 1.13 88.5876 1.13C89.6436 1.13 90.5796 1.382 91.3956 1.886C92.2116 2.378 92.8356 3.086 93.2676 4.01L90.5676 5.594C90.1716 4.658 89.5176 4.19 88.6056 4.19C88.2336 4.19 87.9456 4.268 87.7416 4.424C87.5376 4.568 87.4356 4.766 87.4356 5.018C87.4356 5.294 87.5796 5.528 87.8676 5.72C88.1676 5.912 88.7436 6.134 89.5956 6.386C90.2316 6.578 90.7236 6.746 91.0716 6.89C91.4676 7.058 91.8756 7.286 92.2956 7.574C93.1716 8.15 93.6096 9.068 93.6096 10.328C93.6096 11.564 93.1716 12.53 92.2956 13.226C91.4196 13.922 90.2616 14.27 88.8216 14.27ZM100.059 5V7.862H98.1872V10.472C98.1872 10.856 98.3192 11.102 98.5832 11.21C98.8592 11.306 99.3512 11.336 100.059 11.3V14C98.2832 14.216 97.0232 14.054 96.2792 13.514C95.5592 12.95 95.1992 11.96 95.1992 10.544V7.862H93.8492V5H95.1992V3.38L98.1872 2.48V5H100.059ZM105.656 14.252C104.312 14.252 103.178 13.796 102.254 12.884C101.318 11.972 100.85 10.844 100.85 9.5C100.85 8.18 101.318 7.058 102.254 6.134C103.202 5.21 104.336 4.748 105.656 4.748C107 4.748 108.134 5.21 109.058 6.134C109.994 7.058 110.462 8.18 110.462 9.5C110.462 10.844 109.994 11.972 109.058 12.884C108.146 13.796 107.012 14.252 105.656 14.252ZM105.656 11.372C106.184 11.372 106.616 11.198 106.952 10.85C107.3 10.502 107.474 10.052 107.474 9.5C107.474 8.948 107.3 8.498 106.952 8.15C106.616 7.802 106.184 7.628 105.656 7.628C105.14 7.628 104.708 7.808 104.36 8.168C104.024 8.516 103.856 8.96 103.856 9.5C103.856 10.04 104.024 10.49 104.36 10.85C104.708 11.198 105.14 11.372 105.656 11.372ZM114.764 5V6.674C114.932 6.098 115.262 5.648 115.754 5.324C116.258 4.988 116.828 4.82 117.464 4.82V8.132C116.78 8.024 116.156 8.15 115.592 8.51C115.04 8.87 114.764 9.458 114.764 10.274V14H111.776V5H114.764ZM127.242 10.598H121.032C121.332 11.33 122.004 11.696 123.048 11.696C123.684 11.696 124.23 11.486 124.686 11.066L126.846 12.578C125.97 13.694 124.68 14.252 122.976 14.252C121.452 14.252 120.228 13.808 119.304 12.92C118.392 12.02 117.936 10.886 117.936 9.518C117.936 8.162 118.386 7.028 119.286 6.116C120.186 5.204 121.332 4.748 122.724 4.748C124.068 4.748 125.178 5.198 126.054 6.098C126.93 6.986 127.368 8.114 127.368 9.482C127.368 9.902 127.326 10.274 127.242 10.598ZM120.996 8.528H124.452C124.224 7.688 123.66 7.268 122.76 7.268C121.836 7.268 121.248 7.688 120.996 8.528Z" fill="#4F4CE8"/>
<path d="M48.27 20.552L51.6 19.4H52.68V32H51.42V20.786L48.594 21.632L48.27 20.552ZM57.1772 31.19C57.1772 31.466 57.0812 31.7 56.8892 31.892C56.6972 32.084 56.4632 32.18 56.1872 32.18C55.9112 32.18 55.6772 32.084 55.4852 31.892C55.2932 31.7 55.1972 31.466 55.1972 31.19C55.1972 30.914 55.2932 30.68 55.4852 30.488C55.6772 30.296 55.9112 30.2 56.1872 30.2C56.4632 30.2 56.6972 30.296 56.8892 30.488C57.0812 30.68 57.1772 30.914 57.1772 31.19ZM66.9956 32H58.9856V30.866L63.5216 26.294C64.8176 24.998 65.4656 23.888 65.4656 22.964C65.4656 22.184 65.2196 21.566 64.7276 21.11C64.2476 20.642 63.6476 20.408 62.9276 20.408C61.6436 20.408 60.7016 21.002 60.1016 22.19L59.0396 21.56C59.4236 20.792 59.9576 20.204 60.6416 19.796C61.3256 19.388 62.0876 19.184 62.9276 19.184C63.9356 19.184 64.8176 19.526 65.5736 20.21C66.3416 20.87 66.7256 21.788 66.7256 22.964C66.7256 23.66 66.5336 24.344 66.1496 25.016C65.7656 25.676 65.1776 26.402 64.3856 27.194L60.7856 30.776H66.9956V32ZM70.7827 31.19C70.7827 31.466 70.6867 31.7 70.4947 31.892C70.3027 32.084 70.0687 32.18 69.7927 32.18C69.5167 32.18 69.2827 32.084 69.0907 31.892C68.8987 31.7 68.8027 31.466 68.8027 31.19C68.8027 30.914 68.8987 30.68 69.0907 30.488C69.2827 30.296 69.5167 30.2 69.7927 30.2C70.0687 30.2 70.3027 30.296 70.4947 30.488C70.6867 30.68 70.7827 30.914 70.7827 31.19ZM74.5171 24.476H76.6411C77.8291 24.476 78.8251 24.824 79.6291 25.52C80.4571 26.204 80.8711 27.146 80.8711 28.346C80.8711 29.534 80.4571 30.482 79.6291 31.19C78.8251 31.874 77.8291 32.216 76.6411 32.216C75.6691 32.216 74.8111 31.982 74.0671 31.514C73.3351 31.034 72.8431 30.374 72.5911 29.534L73.6531 28.922C73.8331 29.582 74.1871 30.092 74.7151 30.452C75.2431 30.812 75.8851 30.992 76.6411 30.992C77.5291 30.992 78.2431 30.758 78.7831 30.29C79.3351 29.81 79.6111 29.162 79.6111 28.346C79.6111 27.53 79.3351 26.888 78.7831 26.42C78.2431 25.94 77.5291 25.7 76.6411 25.7H73.2211L73.6711 19.4H80.4211V20.588H74.7871L74.5171 24.476Z" fill="#1F1F1F"/>
<defs>
<clipPath id="clip0_724_23926">
<rect width="36" height="36" fill="white"/>
</clipPath>
</defs>
</svg>
